<?xml version="1.0" standalone="no"?><!DOCTYPE svg PUBLIC "-//W3C//DTD SVG 1.1//EN" "http://www.w3.org/Graphics/SVG/1.1/DTD/svg11.dtd"><svg t="1650871021623" class="icon" viewBox="0 0 1024 1024" version="1.1" xmlns="http://www.w3.org/2000/svg" p-id="3917" xmlns:xlink="http://www.w3.org/1999/xlink" width="200" height="200"><defs><style type="text/css"></style></defs><path d="M852.16 491.84a20.96 20.96 0 0 0-20.16-20.8H528a20.96 20.96 0 1 0 0 41.76h304a20.96 20.96 0 0 0 20.16-20.96zM832 344.16H528a20.96 20.96 0 1 0 0 41.76h304a20.96 20.96 0 1 0 0-41.76zM528 598.08A20.64 20.64 0 1 0 528 640h192a20.64 20.64 0 1 0 0-41.28z m348.48 46.72a64 64 0 0 0-64 64 17.12 17.12 0 1 0 34.08 0 30.56 30.56 0 0 1 30.72-30.72 15.04 15.04 0 0 0 16-16 16 16 0 0 0-16.8-17.28z" fill="#1678FF" p-id="3918"></path><path d="M120 672.8v22.24a18.56 18.56 0 0 0 37.12 0v-22.24a136.96 136.96 0 0 1 136.8-136.8h1.76a107.04 107.04 0 0 0 83.36-169.92l34.4-10.4v78.72a17.12 17.12 0 0 0 34.08 0V352a16 16 0 0 0-1.6-6.88l3.36-1.12h1.44a24.8 24.8 0 0 0-1.44-46.56l-153.6-46.4a16.96 16.96 0 0 0-9.76 0l-155.04 46.88a24.8 24.8 0 0 0 1.6 46.56l72.64 21.92a105.92 105.92 0 0 0 21.12 145.6A173.92 173.92 0 0 0 120 672z m52-352l118.88-35.84 118.88 35.84-118.88 36z m50.4 107.68a68.96 68.96 0 0 1 21.76-50.4l41.76 12.48a16.96 16.96 0 0 0 4.96 0 16 16 0 0 0 4.8 0l44.32-13.28a69.92 69.92 0 0 1-48 121.44 69.92 69.92 0 0 1-69.92-70.24z m196 261.76a24.8 24.8 0 0 0 49.6 0 219.04 219.04 0 0 0-68.96-135.36 27.52 27.52 0 0 0-16-5.92 25.44 25.44 0 0 0-16 5.92 23.36 23.36 0 0 0-7.84 16.8 23.04 23.04 0 0 0 7.84 16c24.96 24.32 51.36 65.28 51.36 102.56z" fill="#333333" p-id="3919"></path><path d="M760.96 864H96a88.8 88.8 0 0 1-88.8-88.32v-528A88.8 88.8 0 0 1 96 160h788.8a88.8 88.8 0 0 1 88.64 88.64v308.8a28.32 28.32 0 1 1-56.48 0V248.16a32 32 0 0 0-32-32H96a32 32 0 0 0-32 32v528a32 32 0 0 0 32 32h664.96a28.32 28.32 0 1 1 0 56.48z" fill="#333333" p-id="3920"></path><path d="M947.52 631.52A104.8 104.8 0 1 0 928 794.56l48 48a23.84 23.84 0 0 0 33.76-33.76l-48-48a104.96 104.96 0 0 0-14.24-129.28z m-22.24 126.08a73.44 73.44 0 1 1 0-103.84 73.28 73.28 0 0 1 0 103.84z" fill="#333333" p-id="3921"></path></svg>